<svg width="50" height="50" viewBox="0 0 50 50" fill="none" xmlns="http://www.w3.org/2000/svg">
<path d="M39.5833 0H10.4167C4.66458 0 0 4.66458 0 10.4167V39.5833C0 45.3354 4.66458 50 10.4167 50H39.5833C45.3375 50 50 45.3354 50 39.5833V10.4167C50 4.66458 45.3375 0 39.5833 0ZM30.2792 40.8125C29.4354 40.975 29.1667 40.4562 29.1667 40.0125V35.4396C29.1667 33.8833 28.6208 32.8708 28.0208 32.3542C31.7333 31.9417 35.6333 30.5312 35.6333 24.1313C35.6333 22.3104 34.9833 20.8229 33.9188 19.6583C34.0896 19.2375 34.6604 17.5417 33.7542 15.2479C33.7542 15.2479 32.3562 14.8 29.175 16.9562C27.8417 16.5812 26.4167 16.4 25 16.3917C23.5833 16.3979 22.1583 16.5812 20.8271 16.9521C17.6437 14.7958 16.2437 15.2437 16.2437 15.2437C15.3396 17.5396 15.9104 19.2333 16.0833 19.6562C15.0167 20.8229 14.3667 22.3083 14.3667 24.1292C14.3667 30.5125 18.2563 31.9437 21.9604 32.3667C21.4833 32.7833 21.0521 33.5167 20.9021 34.5958C19.95 35.0208 17.5396 35.7562 16.0521 33.2083C16.0521 33.2083 15.1708 31.6083 13.4958 31.4896C13.4958 31.4896 11.8708 31.4688 13.3812 32.5042C13.3812 32.5042 14.475 33.0167 15.2333 34.9417C15.2333 34.9417 16.1979 37.9167 20.8333 36.9083V40.0104C20.8333 40.45 20.5646 40.9667 19.7333 40.8125C13.1083 38.6104 8.33333 32.3625 8.33333 25C8.33333 15.7937 15.7958 8.33333 25 8.33333C34.2042 8.33333 41.6667 15.7937 41.6667 25C41.6667 32.3604 36.8979 38.6062 30.2792 40.8125Z" fill="#3F3D56"/>
</svg>
