<svg width="50" height="50" viewBox="0 0 50 50" fill="none" xmlns="http://www.w3.org/2000/svg">
<g clip-path="url(#clip0)">
<path fill-rule="evenodd" clip-rule="evenodd" d="M18.7083 22.9167C18.7083 24.0667 17.7729 25 16.625 25C15.4771 25 14.5417 24.0667 14.5417 22.9167C14.5417 21.7667 15.4771 20.8333 16.625 20.8333C17.7729 20.8333 18.7083 21.7667 18.7083 22.9167ZM37.4583 22.9167C37.4583 24.0667 36.525 25 35.375 25C34.225 25 33.2917 24.0667 33.2917 22.9167C33.2917 21.7667 34.225 20.8333 35.375 20.8333C36.525 20.8333 37.4583 21.7667 37.4583 22.9167ZM45.0396 32.3458L37.8083 34.4292C36.4854 34.8187 35.9062 32.8083 37.2313 32.4271L44.4604 30.3437C45.7875 29.9583 46.3583 31.9667 45.0396 32.3458ZM41.9625 39.525L37.2042 38.0083C35.8917 37.5917 36.5167 35.6167 37.8354 36.0229L42.5938 37.5396C43.9208 37.9625 43.2521 39.9292 41.9625 39.525ZM31.2083 22.9167C31.2083 20.6167 33.075 18.75 35.375 18.75C37.675 18.75 39.5417 20.6167 39.5417 22.9167C39.5417 25.2167 37.675 27.0833 35.375 27.0833C33.075 27.0833 31.2083 25.2167 31.2083 22.9167ZM33.2 38.2312C32.0583 40.7604 28.0521 42.0458 26 39.3625C23.9437 42.0479 19.9375 40.7583 18.8 38.2312C18.2354 36.9792 20.1313 36.1167 20.7 37.375C21.4 38.9312 24.9354 40.0875 24.9583 35.7167V34.6646C23.6771 34.2104 22.7458 33.0021 22.7458 31.9292C22.7458 30.5833 24.2042 29.9812 26 29.9812C27.7937 29.9812 29.2542 30.5833 29.2542 31.9292C29.2542 33.0021 28.3229 34.2083 27.0417 34.6646V35.7167C27.0604 40.1312 30.6104 38.9083 31.3 37.375C31.8625 36.1208 33.7667 36.975 33.2 38.2312ZM12.4583 22.9167C12.4583 20.6167 14.325 18.75 16.625 18.75C18.925 18.75 20.7917 20.6167 20.7917 22.9167C20.7917 25.2167 18.925 27.0833 16.625 27.0833C14.325 27.0833 12.4583 25.2167 12.4583 22.9167ZM14.7979 38.0083L10.0375 39.525C8.73542 39.925 8.08542 37.9604 9.40417 37.5396L14.1646 36.0229C15.4896 35.6125 16.1021 37.5917 14.7979 38.0083ZM7.53958 30.3437L14.7688 32.4271C16.0979 32.8104 15.5104 34.8187 14.1917 34.4292L6.96042 32.3458C5.63125 31.9646 6.22292 29.9562 7.53958 30.3437ZM40.0167 0C35.6792 3.77917 33.5958 6.34167 30.5458 10.9604C28.0187 10.3396 23.8667 10.35 21.4542 10.9604C18.5354 6.56458 16.4437 3.99375 11.9833 0C5.59167 8.42083 1 18.6229 1 28.2604C1 40.2583 8.07708 50 26 50C43.9229 50 51 40.2583 51 28.2604C51 18.7229 46.4021 8.46458 40.0167 0Z" fill="black"/>
</g>
<defs>
<clipPath id="clip0">
<rect width="50" height="50" fill="white"/>
</clipPath>
</defs>
</svg>
