<svg width="55" height="55" viewBox="0 0 55 55" fill="none" xmlns="http://www.w3.org/2000/svg">
<path d="M43.5417 0H11.4583C5.13104 0 0 5.13104 0 11.4583V43.5417C0 49.869 5.13104 55 11.4583 55H43.5417C49.8713 55 55 49.869 55 43.5417V11.4583C55 5.13104 49.8713 0 43.5417 0ZM44.1146 38.9492H39.2242C36.4627 38.9492 35.9952 37.3748 33.7219 35.1015C31.6663 33.0458 30.525 34.6225 30.5731 37.549C30.5869 38.3258 30.2042 38.9492 29.276 38.9492C26.3794 38.9492 22.2177 39.3571 18.0056 34.8104C13.6904 30.1515 9.16667 20.806 9.16667 19.8848C9.16667 19.3417 9.61583 19.0965 10.3675 19.0965H15.3404C16.6558 19.0965 16.7681 19.7473 17.1348 20.5838C18.6633 24.0694 22.3254 31.0658 23.2994 27.1608C23.8585 24.9196 24.0877 19.7244 21.6883 19.2775C20.3271 19.0254 22.7242 17.5679 26.1983 17.5679C27.0623 17.5679 27.9996 17.6619 28.9598 17.8819C30.7221 18.2921 30.7267 19.0804 30.7038 20.2331C30.6144 24.5942 30.0873 27.5298 31.2377 28.27C32.3354 28.9804 35.2229 24.3352 36.7446 20.751C37.164 19.7588 37.2465 19.0965 38.4267 19.0965H44.5088C47.6942 19.0965 44.0917 23.6729 41.3394 27.2479C39.121 30.124 39.2402 30.1812 41.8183 32.5737C43.6585 34.2788 45.8288 36.6071 45.8288 37.9271C45.8333 38.5504 45.3475 38.9492 44.1146 38.9492Z" fill="white"/>
</svg>
