<svg width="50" height="50" viewBox="0 0 50 50" fill="none" xmlns="http://www.w3.org/2000/svg">
<path d="M39.5833 0H10.4167C4.66458 0 0 4.66458 0 10.4167V39.5833C0 45.3354 4.66458 50 10.4167 50H39.5833C45.3375 50 50 45.3354 50 39.5833V10.4167C50 4.66458 45.3375 0 39.5833 0ZM24.9562 8.33333C30.9125 8.33333 36.8104 11.4896 39.8417 17.4354H26.9354C24.6104 17.4354 23.1083 17.3833 21.4812 18.2396C19.5708 19.2458 18.1292 21.1104 17.625 23.3021L12.3583 14.1396C15.7312 10.2125 20.3604 8.33333 24.9562 8.33333ZM30.5333 25C30.5333 28.0562 28.0479 30.5417 24.9937 30.5417C21.9396 30.5417 19.4542 28.0562 19.4542 25C19.4542 21.9437 21.9375 19.4562 24.9937 19.4562C28.0479 19.4562 30.5333 21.9437 30.5333 25ZM8.33333 24.9396C8.33333 21.8646 9.1875 18.7354 11.0354 15.9021C12.8625 19.0854 16.8813 26.0875 18.4021 28.7146C20.3958 32.1542 24.0333 33.1792 27.1437 32.2542L21.7667 41.3542C13.5083 39.7313 8.33333 32.5062 8.33333 24.9396ZM23.9562 41.6333C26 38.1854 30.2167 31.0667 31.5396 28.7875C33.2937 25.7646 32.7292 21.8646 30.1396 19.4562H40.7062C41.3625 21.3125 41.6667 23.1812 41.6667 25.0063C41.6667 34.1896 33.9396 42.25 23.9562 41.6333Z" fill="#3F3D56"/>
</svg>
