<svg width="60" height="60" viewBox="0 0 60 60" fill="none" xmlns="http://www.w3.org/2000/svg">
<rect width="60" height="60" fill="url(#paint0_linear)"/>
<path d="M47.5 0H12.5C5.5975 0 0 5.5975 0 12.5V47.5C0 54.4025 5.5975 60 12.5 60H47.5C54.405 60 60 54.4025 60 47.5V12.5C60 5.5975 54.405 0 47.5 0ZM36.335 48.975C35.3225 49.17 35 48.5475 35 48.015V42.5275C35 40.66 34.345 39.445 33.625 38.825C38.08 38.33 42.76 36.6375 42.76 28.9575C42.76 26.7725 41.98 24.9875 40.7025 23.59C40.9075 23.085 41.5925 21.05 40.505 18.2975C40.505 18.2975 38.8275 17.76 35.01 20.3475C33.41 19.8975 31.7 19.68 30 19.67C28.3 19.6775 26.59 19.8975 24.9925 20.3425C21.1725 17.755 19.4925 18.2925 19.4925 18.2925C18.4075 21.0475 19.0925 23.08 19.3 23.5875C18.02 24.9875 17.24 26.77 17.24 28.955C17.24 36.615 21.9075 38.3325 26.3525 38.84C25.78 39.34 25.2625 40.22 25.0825 41.515C23.94 42.025 21.0475 42.9075 19.2625 39.85C19.2625 39.85 18.205 37.93 16.195 37.7875C16.195 37.7875 14.245 37.7625 16.0575 39.005C16.0575 39.005 17.37 39.62 18.28 41.93C18.28 41.93 19.4375 45.5 25 44.29V48.0125C25 48.54 24.6775 49.16 23.68 48.975C15.73 46.3325 10 38.835 10 30C10 18.9525 18.955 10 30 10C41.045 10 50 18.9525 50 30C50 38.8325 44.2775 46.3275 36.335 48.975Z" fill="url(#paint1_linear)"/>
<defs>
<linearGradient id="paint0_linear" x1="30" y1="0" x2="30" y2="60" gradientUnits="userSpaceOnUse">
<stop stop-color="white"/>
<stop offset="1" stop-color="white" stop-opacity="0"/>
</linearGradient>
<linearGradient id="paint1_linear" x1="30" y1="0" x2="30" y2="60" gradientUnits="userSpaceOnUse">
<stop stop-color="#E598E2"/>
<stop offset="1" stop-color="#4B8FF4"/>
</linearGradient>
</defs>
</svg>
